# xmcd CD database file
#
# Track frame offsets:
#	150
#	12809
#	28166
#	44253
#	61786
#	81746
#	112174
#	130913
#	145440
#	164569
#
# Disc length: 2503 seconds
#
# Revision: 4
# Processed by: cddbd v1.4PL0 Copyright (c) Steve Scherf et al.
# Submitted via: CDex 1.40Release
#
DISCID=9009c50a
DTITLE=Josh Rouse - Dressed Up Like Nebraska
DYEAR=1998
DGENRE=Rock
TTITLE0=Suburban Sweetheart
TTITLE1=Dressed Up Like Nebraska
TTITLE2=Invisible
TTITLE3=Late Night Conversation
TTITLE4=Flair
TTITLE5=The White Trash Period of My Life
TTITLE6=A Simple Thing
TTITLE7=A Woman Lost in Serious Problems
TTITLE8=Lavina
TTITLE9=Reminiscent
EXTD=YEAR: 1998 ID3G: 17
EXTT0=
EXTT1=
EXTT2=
EXTT3=
EXTT4=
EXTT5=
EXTT6=
EXTT7=
EXTT8=
EXTT9=
PLAYORDER=
